<svg width="77" height="77" viewBox="0 0 77 77" fill="none" xmlns="http://www.w3.org/2000/svg">
<g filter="url(#filter0_di)">
<circle cx="38.3684" cy="34.1316" r="33.8947" fill="url(#paint0_linear)"/>
</g>
<circle cx="38.3684" cy="34.1316" r="23.3158" fill="#D2DAD4" stroke="#717171" stroke-width="2"/>
<circle cx="38.3684" cy="34.1316" r="21.8553" fill="#D2DAD4" stroke="#717171" stroke-width="0.5"/>
<circle cx="38.3684" cy="34.1316" r="20.3816" fill="#D2DAD4" stroke="#717171" stroke-width="0.5"/>
<rect x="34.6842" y="5.16041" width="4.87887" height="4.87887" transform="rotate(-45 34.6842 5.16041)" fill="#B9C2D0"/>
<rect x="59" y="49.3709" width="4.87887" height="4.87887" transform="rotate(-45 59 49.3709)" fill="#B9C2D0"/>
<rect x="10.3684" y="49.3709" width="4.87887" height="4.87887" transform="rotate(-45 10.3684 49.3709)" fill="#B9C2D0"/>
<path d="M36.0563 38H34.0759V31.6953L32.1306 32.2637V30.7637L35.8747 29.4688H36.0563V38ZM44.5524 34.5137C44.5524 35.666 44.2927 36.5547 43.7731 37.1797C43.2575 37.8047 42.529 38.1172 41.5876 38.1172C40.6384 38.1172 39.904 37.8027 39.3845 37.1738C38.8649 36.5449 38.6052 35.6582 38.6052 34.5137V32.9551C38.6052 31.8027 38.863 30.9141 39.3786 30.2891C39.8981 29.6641 40.6306 29.3516 41.5759 29.3516C42.5212 29.3516 43.2536 29.666 43.7731 30.2949C44.2927 30.9238 44.5524 31.8125 44.5524 32.9609V34.5137ZM42.5778 32.7031C42.5778 32.0898 42.4977 31.6328 42.3376 31.332C42.1774 31.0273 41.9235 30.875 41.5759 30.875C41.236 30.875 40.988 31.0156 40.8317 31.2969C40.6794 31.5781 40.5974 32.0039 40.5856 32.5742V34.7539C40.5856 35.3906 40.6657 35.8574 40.8259 36.1543C40.986 36.4473 41.2399 36.5938 41.5876 36.5938C41.9235 36.5938 42.1716 36.4512 42.3317 36.166C42.4919 35.877 42.5739 35.4258 42.5778 34.8125V32.7031Z" fill="black"/>
<defs>
<filter id="filter0_di" x="0.473682" y="0.236841" width="75.7895" height="75.7895" filterUnits="userSpaceOnUse" color-interpolation-filters="sRGB">
<feFlood flood-opacity="0" result="BackgroundImageFix"/>
<feColorMatrix in="SourceAlpha" type="matrix" values="0 0 0 0 0 0 0 0 0 0 0 0 0 0 0 0 0 0 127 0"/>
<feOffset dy="4"/>
<feGaussianBlur stdDeviation="2"/>
<feColorMatrix type="matrix" values="0 0 0 0 0 0 0 0 0 0 0 0 0 0 0 0 0 0 0.25 0"/>
<feBlend mode="normal" in2="BackgroundImageFix" result="effect1_dropShadow"/>
<feBlend mode="normal" in="SourceGraphic" in2="effect1_dropShadow" result="shape"/>
<feColorMatrix in="SourceAlpha" type="matrix" values="0 0 0 0 0 0 0 0 0 0 0 0 0 0 0 0 0 0 127 0" result="hardAlpha"/>
<feOffset dx="-2" dy="3"/>
<feGaussianBlur stdDeviation="2"/>
<feComposite in2="hardAlpha" operator="arithmetic" k2="-1" k3="1"/>
<feColorMatrix type="matrix" values="0 0 0 0 0.823559 0 0 0 0 0.854167 0 0 0 0 0.829681 0 0 0 1 0"/>
<feBlend mode="normal" in2="shape" result="effect2_innerShadow"/>
</filter>
<linearGradient id="paint0_linear" x1="19.4842" y1="76.7421" x2="78.0737" y2="38.9737" gradientUnits="userSpaceOnUse">
<stop offset="0.334632" stop-color="#5784D7"/>
<stop offset="1" stop-color="#4480B8"/>
</linearGradient>
</defs>
</svg>
